# xmcd
#
# Track frame offsets:
#	150
#	14838
#	30900
#	47467
#	63072
#	79432
#	97037
#	115947
#	130575
#	146628
#	163093
#	178748
#	195033
#	212613
#
# Disc length: 3086 seconds
#
# Revision: 0
# Processed by: cddbd v1.5.2PL0 Copyright (c) Steve Scherf et al.
# Submitted via: audiograbber 1.83.01
#
DISCID=b60c0c0e
DTITLE=Various Artist - PRD015
DYEAR=2001
DGENRE=Country
TTITLE0=Dixie Chicks - Let 'Er Rip
TTITLE1=Jo Dee Messina - Lessons In Leavin'
TTITLE2=Tim Mc Graw - Just To See You Smile
TTITLE3=Leann Rimes - Big Deal
TTITLE4=John M. Montgomery - Hoime To You
TTITLE5=Shania Twain - Don't Be Stupid
TTITLE6=Gath Brooks - It's Your Song
TTITLE7=Dixie Chicks - Let 'Er Rip (Vocal)
TTITLE8=Jo Doo Messina - Lessons In Leavin' (Vocal)
TTITLE9=Tim Mc Graw - Just To See You Smile (Vocal)
TTITLE10=Leann Rimes - Big Deal (Vocal)
TTITLE11=John M. Montgomery - Home To You (Vocal)
TTITLE12=Shania Twain - Don't Be Stupid (Vocal)
TTITLE13=Garth Brooks - It's Your Song (Vocal)
EXTD=
EXTT0=
EXTT1=
EXTT2=
EXTT3=
EXTT4=
EXTT5=
EXTT6=
EXTT7=
EXTT8=
EXTT9=
EXTT10=
EXTT11=
EXTT12=
EXTT13=
PLAYORDER=
